<svg xmlns="http://www.w3.org/2000/svg" viewBox="0 0 320 220" fill="none">
  <ellipse cx="160" cy="198" rx="112" ry="12" fill="#f9a8d4" opacity=".4"/>
  <!-- bảng màu -->
  <path d="M132 32c56 0 100 36 100 78 0 26-22 34-40 34-14 0-24 8-24 20 0 14-12 22-30 22-44 0-80-34-80-76S82 32 132 32z" fill="#fff" stroke="#f472b6" stroke-width="5"/>
  <circle cx="98" cy="76" r="13" fill="#ef4444"/>
  <circle cx="140" cy="62" r="13" fill="#fbbf24"/>
  <circle cx="182" cy="82" r="13" fill="#38bdf8"/>
  <circle cx="188" cy="126" r="13" fill="#22c55e"/>
  <circle cx="96" cy="128" r="16" fill="#f1f5f9"/>
  <!-- cọ vẽ -->
  <g transform="rotate(24 250 120)">
    <rect x="242" y="34" width="18" height="84" rx="8" fill="#f59e0b"/>
    <rect x="240" y="116" width="22" height="16" rx="5" fill="#cbd5e1"/>
    <path d="M242 132h18l-4 34a5 5 0 0 1-10 0z" fill="#8b5cf6"/>
  </g>
  <!-- vệt màu -->
  <path d="M36 176c30-16 62-16 92 0" stroke="#f472b6" stroke-width="10" stroke-linecap="round"/>
  <path d="M182 186c28-12 56-12 84 0" stroke="#38bdf8" stroke-width="10" stroke-linecap="round"/>
</svg>
