<svg xmlns="http://www.w3.org/2000/svg" viewBox="0 0 320 220" fill="none">
  <circle cx="252" cy="56" r="26" fill="#fbbf24"/>
  <g stroke="#fbbf24" stroke-width="5" stroke-linecap="round">
    <path d="M252 16v-8"/><path d="M252 104v8"/><path d="M212 56h-8"/><path d="M300 56h8"/>
    <path d="M224 28l-6-6"/><path d="M280 84l6 6"/><path d="M280 28l6-6"/><path d="M224 84l-6 6"/>
  </g>
  <ellipse cx="70" cy="52" rx="26" ry="15" fill="#e2e8f0"/>
  <ellipse cx="94" cy="56" rx="18" ry="11" fill="#f1f5f9"/>
  <path d="M0 178h320v14H0z" fill="#86efac"/>
  <path d="M0 178c40-22 76-22 116 0z" fill="#4ade80"/>
  <path d="M204 178c40-24 76-24 116 0z" fill="#4ade80"/>
  <!-- cây -->
  <rect x="146" y="120" width="16" height="62" rx="6" fill="#a16207"/>
  <circle cx="154" cy="102" r="42" fill="#22c55e"/>
  <circle cx="116" cy="118" r="27" fill="#16a34a"/>
  <circle cx="192" cy="118" r="27" fill="#4ade80"/>
  <circle cx="140" cy="90" r="6" fill="#ef4444"/>
  <circle cx="176" cy="108" r="6" fill="#ef4444"/>
  <!-- mầm cây -->
  <path d="M56 178c0-20 4-32 12-40" stroke="#16a34a" stroke-width="5" stroke-linecap="round"/>
  <path d="M68 138c14-4 22 2 24 14-14 4-22-2-24-14z" fill="#22c55e"/>
  <path d="M60 152c-12-6-20-2-22 8 12 6 20 2 22-8z" fill="#4ade80"/>
</svg>
